<svg width="34" height="39" viewBox="0 0 34 39" fill="none" xmlns="http://www.w3.org/2000/svg">
<path d="M15.3875 0.401925C16.3157 -0.133975 17.4593 -0.133975 18.3875 0.401925L32.275 8.41993C33.2032 8.95583 33.775 9.94623 33.775 11.018V27.0538C33.775 28.1256 33.2032 29.116 32.275 29.6519L18.3875 37.6699C17.4593 38.2058 16.3157 38.2058 15.3875 37.6699L1.5 29.6519C0.5718 29.116 0 28.1256 0 27.0539V11.0179C0 9.94623 0.5718 8.95583 1.5 8.41993L15.3875 0.401925Z" fill="#FC9404"/>
<path d="M15.8875 9.47322C16.5063 9.11602 17.2687 9.11602 17.8875 9.47322L24.669 13.3885C25.2878 13.7458 25.669 14.4061 25.669 15.1206V22.9512C25.669 23.6657 25.2878 24.326 24.669 24.6832L17.8875 28.5985C17.2687 28.9558 16.5063 28.9558 15.8875 28.5985L9.10602 24.6832C8.48722 24.326 8.10602 23.6657 8.10602 22.9512V15.1206C8.10602 14.4061 8.48722 13.7458 9.10602 13.3885L15.8875 9.47322Z" fill="white"/>
</svg>
